<?xml version="1.0" encoding="UTF-8"?>
<!DOCTYPE svg PUBLIC "-//W3C//DTD SVG 1.1//EN" "http://www.w3.org/Graphics/SVG/1.1/DTD/svg11.dtd">
<svg xmlns="http://www.w3.org/2000/svg" version="1.1" width="32px" height="32px" style="shape-rendering:geometricPrecision; text-rendering:geometricPrecision; image-rendering:optimizeQuality; fill-rule:evenodd; clip-rule:evenodd" xmlns:xlink="http://www.w3.org/1999/xlink">
<g><path style="opacity:1" fill="#83dbff" d="M 4.5,-0.5 C 11.8333,-0.5 19.1667,-0.5 26.5,-0.5C 28.1667,1.16667 29.8333,2.83333 31.5,4.5C 31.5,6.83333 31.5,9.16667 31.5,11.5C 31.1667,11.5 30.8333,11.5 30.5,11.5C 28.6729,10.0681 27.0063,8.40138 25.5,6.5C 23.6837,5.26506 22.017,5.26506 20.5,6.5C 13.5,6.5 6.5,6.5 -0.5,6.5C -0.5,5.83333 -0.5,5.16667 -0.5,4.5C 1.16667,2.83333 2.83333,1.16667 4.5,-0.5 Z"/></g>
<g><path style="opacity:1" fill="#326121" d="M 30.5,11.5 C 29.8036,16.6858 27.4703,17.6858 23.5,14.5C 23.5391,12.6412 22.7058,11.3079 21,10.5C 19.3333,11.7332 17.8333,13.0665 16.5,14.5C 16.1667,14.5 15.8333,14.5 15.5,14.5C 14.3995,13.3951 13.7329,12.0618 13.5,10.5C 15.449,8.43695 17.7823,7.10362 20.5,6.5C 22.017,5.26506 23.6837,5.26506 25.5,6.5C 27.0063,8.40138 28.6729,10.0681 30.5,11.5 Z"/></g>
<g><path style="opacity:1" fill="#82b0ff" d="M -0.5,6.5 C 6.5,6.5 13.5,6.5 20.5,6.5C 17.7823,7.10362 15.449,8.43695 13.5,10.5C 8.83333,10.5 4.16667,10.5 -0.5,10.5C -0.5,9.16667 -0.5,7.83333 -0.5,6.5 Z"/></g>
<g><path style="opacity:1" fill="#7f602e" d="M 23.5,14.5 C 22.5,14.5 21.5,14.5 20.5,14.5C 20.5,15.5 20.5,16.5 20.5,17.5C 19.2616,19.2143 18.595,21.2143 18.5,23.5C 16.002,22.9182 13.6687,22.9182 11.5,23.5C 9.91251,21.3806 10.2458,19.714 12.5,18.5C 13.1924,19.0253 13.6924,19.6919 14,20.5C 15.6625,18.8421 16.4959,16.8421 16.5,14.5C 17.8333,13.0665 19.3333,11.7332 21,10.5C 22.7058,11.3079 23.5391,12.6412 23.5,14.5 Z"/></g>
<g><path style="opacity:1" fill="#828dff" d="M -0.5,10.5 C 4.16667,10.5 8.83333,10.5 13.5,10.5C 13.7329,12.0618 14.3995,13.3951 15.5,14.5C 13.7162,14.8925 12.0495,15.5592 10.5,16.5C 6.83333,16.5 3.16667,16.5 -0.5,16.5C -0.5,14.5 -0.5,12.5 -0.5,10.5 Z"/></g>
<g><path style="opacity:1" fill="#feff4d" d="M 15.5,14.5 C 15.8333,14.5 16.1667,14.5 16.5,14.5C 16.4959,16.8421 15.6625,18.8421 14,20.5C 13.6924,19.6919 13.1924,19.0253 12.5,18.5C 10.2458,19.714 9.91251,21.3806 11.5,23.5C 9.50819,23.3285 7.84152,23.9951 6.5,25.5C 5.70245,25.0431 5.36912,24.3764 5.5,23.5C 6.75355,20.9066 8.42022,18.5732 10.5,16.5C 12.0495,15.5592 13.7162,14.8925 15.5,14.5 Z"/></g>
<g><path style="opacity:1" fill="#feff4d" d="M 20.5,17.5 C 22.914,18.9108 24.5806,20.9108 25.5,23.5C 25.6309,24.3764 25.2975,25.0431 24.5,25.5C 22.8211,23.8955 20.8211,23.2289 18.5,23.5C 18.595,21.2143 19.2616,19.2143 20.5,17.5 Z"/></g>
<g><path style="opacity:1" fill="#8260ff" d="M -0.5,16.5 C 3.16667,16.5 6.83333,16.5 10.5,16.5C 8.42022,18.5732 6.75355,20.9066 5.5,23.5C 3.28209,23.3862 1.28209,22.7196 -0.5,21.5C -0.5,19.8333 -0.5,18.1667 -0.5,16.5 Z"/></g>
<g><path style="opacity:1" fill="#826bff" d="M 30.5,11.5 C 30.8333,11.5 31.1667,11.5 31.5,11.5C 31.5,14.8333 31.5,18.1667 31.5,21.5C 29.7179,22.7196 27.7179,23.3862 25.5,23.5C 24.5806,20.9108 22.914,18.9108 20.5,17.5C 20.5,16.5 20.5,15.5 20.5,14.5C 21.5,14.5 22.5,14.5 23.5,14.5C 27.4703,17.6858 29.8036,16.6858 30.5,11.5 Z"/></g>
<g><path style="opacity:1" fill="#53f28c" d="M -0.5,21.5 C 1.28209,22.7196 3.28209,23.3862 5.5,23.5C 5.36912,24.3764 5.70245,25.0431 6.5,25.5C 7.84152,23.9951 9.50819,23.3285 11.5,23.5C 13.6687,22.9182 16.002,22.9182 18.5,23.5C 20.8211,23.2289 22.8211,23.8955 24.5,25.5C 25.2975,25.0431 25.6309,24.3764 25.5,23.5C 27.7179,23.3862 29.7179,22.7196 31.5,21.5C 31.5,23.1667 31.5,24.8333 31.5,26.5C 29.8333,28.1667 28.1667,29.8333 26.5,31.5C 19.1667,31.5 11.8333,31.5 4.5,31.5C 2.83333,29.8333 1.16667,28.1667 -0.5,26.5C -0.5,24.8333 -0.5,23.1667 -0.5,21.5 Z"/></g>
</svg>
